G04*
G04 #@! TF.GenerationSoftware,Altium Limited,Altium Designer,22.8.2 (66)*
G04*
G04 Layer_Color=16711935*
%FSLAX44Y44*%
%MOMM*%
G71*
G04*
G04 #@! TF.SameCoordinates,9F03F0D1-B5BB-43BE-BF5E-FE92B5DAE0BD*
G04*
G04*
G04 #@! TF.FilePolarity,Positive*
G04*
G01*
G75*
%ADD10C,0.2540*%
%ADD12C,0.2500*%
%ADD13C,0.3000*%
%ADD15C,0.1000*%
%ADD16C,0.4000*%
%ADD17C,0.0500*%
G36*
X269495Y321891D02*
X269676Y321863D01*
X269898Y321822D01*
X270147Y321752D01*
X270397Y321669D01*
X270646Y321558D01*
X270660D01*
X270674Y321544D01*
X270758Y321503D01*
X270882Y321420D01*
X271021Y321323D01*
X271187Y321184D01*
X271354Y321031D01*
X271520Y320851D01*
X271659Y320643D01*
X271673Y320615D01*
X271714Y320546D01*
X271770Y320421D01*
X271839Y320269D01*
X271908Y320088D01*
X271964Y319880D01*
X272006Y319644D01*
X272020Y319409D01*
Y319381D01*
Y319298D01*
X272006Y319187D01*
X271978Y319034D01*
X271936Y318854D01*
X271867Y318660D01*
X271784Y318466D01*
X271673Y318271D01*
X271659Y318244D01*
X271617Y318188D01*
X271534Y318091D01*
X271423Y317980D01*
X271285Y317855D01*
X271118Y317717D01*
X270924Y317592D01*
X270688Y317467D01*
X270702D01*
X270730Y317453D01*
X270771Y317439D01*
X270827Y317425D01*
X270979Y317370D01*
X271173Y317287D01*
X271395Y317176D01*
X271617Y317037D01*
X271825Y316857D01*
X272020Y316649D01*
X272033Y316621D01*
X272089Y316538D01*
X272172Y316399D01*
X272255Y316219D01*
X272339Y315997D01*
X272422Y315734D01*
X272477Y315428D01*
X272491Y315096D01*
Y315082D01*
Y315040D01*
Y314971D01*
X272477Y314888D01*
X272463Y314777D01*
X272435Y314652D01*
X272408Y314513D01*
X272380Y314361D01*
X272269Y314028D01*
X272186Y313847D01*
X272103Y313681D01*
X271992Y313501D01*
X271867Y313320D01*
X271728Y313140D01*
X271562Y312974D01*
X271548Y312960D01*
X271520Y312932D01*
X271465Y312890D01*
X271395Y312835D01*
X271312Y312766D01*
X271201Y312696D01*
X271076Y312613D01*
X270924Y312544D01*
X270771Y312461D01*
X270591Y312377D01*
X270411Y312308D01*
X270203Y312239D01*
X269981Y312183D01*
X269745Y312142D01*
X269509Y312114D01*
X269246Y312100D01*
X269121D01*
X269038Y312114D01*
X268927Y312128D01*
X268802Y312142D01*
X268663Y312169D01*
X268511Y312197D01*
X268178Y312280D01*
X267831Y312419D01*
X267651Y312502D01*
X267484Y312599D01*
X267318Y312724D01*
X267152Y312849D01*
X267138Y312863D01*
X267110Y312890D01*
X267069Y312932D01*
X267027Y312988D01*
X266957Y313057D01*
X266888Y313154D01*
X266805Y313251D01*
X266722Y313376D01*
X266639Y313515D01*
X266555Y313653D01*
X266403Y313986D01*
X266278Y314374D01*
X266236Y314582D01*
X266209Y314804D01*
X267388Y314957D01*
Y314943D01*
X267401Y314915D01*
X267415Y314860D01*
X267429Y314790D01*
X267443Y314707D01*
X267471Y314610D01*
X267540Y314402D01*
X267637Y314153D01*
X267762Y313917D01*
X267901Y313695D01*
X268067Y313501D01*
X268095Y313487D01*
X268150Y313431D01*
X268261Y313362D01*
X268400Y313293D01*
X268566Y313209D01*
X268774Y313140D01*
X269010Y313085D01*
X269260Y313071D01*
X269343D01*
X269398Y313085D01*
X269551Y313099D01*
X269745Y313140D01*
X269967Y313209D01*
X270203Y313307D01*
X270438Y313445D01*
X270660Y313639D01*
X270688Y313667D01*
X270758Y313750D01*
X270841Y313875D01*
X270952Y314042D01*
X271063Y314250D01*
X271146Y314485D01*
X271215Y314763D01*
X271243Y315068D01*
Y315082D01*
Y315109D01*
Y315151D01*
X271229Y315207D01*
X271215Y315359D01*
X271173Y315539D01*
X271118Y315761D01*
X271021Y315983D01*
X270882Y316205D01*
X270702Y316413D01*
X270674Y316441D01*
X270605Y316496D01*
X270494Y316579D01*
X270341Y316677D01*
X270147Y316774D01*
X269911Y316857D01*
X269648Y316912D01*
X269357Y316940D01*
X269232D01*
X269135Y316926D01*
X269010Y316912D01*
X268871Y316885D01*
X268705Y316857D01*
X268525Y316815D01*
X268663Y317855D01*
X268733D01*
X268788Y317841D01*
X268968D01*
X269121Y317869D01*
X269301Y317897D01*
X269509Y317939D01*
X269745Y318008D01*
X269967Y318105D01*
X270203Y318230D01*
X270217D01*
X270231Y318244D01*
X270300Y318299D01*
X270397Y318396D01*
X270508Y318521D01*
X270619Y318701D01*
X270716Y318909D01*
X270785Y319145D01*
X270813Y319284D01*
Y319436D01*
Y319450D01*
Y319464D01*
Y319547D01*
X270785Y319658D01*
X270758Y319811D01*
X270702Y319977D01*
X270633Y320158D01*
X270522Y320338D01*
X270369Y320504D01*
X270355Y320518D01*
X270286Y320574D01*
X270189Y320643D01*
X270064Y320726D01*
X269898Y320796D01*
X269704Y320865D01*
X269482Y320920D01*
X269232Y320934D01*
X269121D01*
X268996Y320906D01*
X268830Y320879D01*
X268650Y320823D01*
X268469Y320754D01*
X268275Y320643D01*
X268095Y320504D01*
X268081Y320490D01*
X268025Y320421D01*
X267942Y320324D01*
X267845Y320185D01*
X267748Y320005D01*
X267651Y319783D01*
X267568Y319520D01*
X267512Y319214D01*
X266334Y319422D01*
Y319436D01*
X266347Y319478D01*
X266361Y319533D01*
X266375Y319617D01*
X266403Y319714D01*
X266444Y319825D01*
X266528Y320088D01*
X266666Y320393D01*
X266833Y320698D01*
X267041Y320990D01*
X267304Y321253D01*
X267318Y321267D01*
X267346Y321281D01*
X267388Y321309D01*
X267443Y321350D01*
X267512Y321406D01*
X267609Y321461D01*
X267706Y321517D01*
X267831Y321586D01*
X268109Y321697D01*
X268428Y321808D01*
X268802Y321877D01*
X268996Y321905D01*
X269343D01*
X269495Y321891D01*
D02*
G37*
G36*
X260939Y321850D02*
X261216Y321836D01*
X261493Y321808D01*
X261771Y321766D01*
X262006Y321725D01*
X262020D01*
X262048Y321711D01*
X262090D01*
X262145Y321683D01*
X262298Y321641D01*
X262492Y321572D01*
X262714Y321475D01*
X262950Y321350D01*
X263185Y321212D01*
X263407Y321031D01*
X263421Y321017D01*
X263435Y321003D01*
X263477Y320962D01*
X263532Y320920D01*
X263671Y320782D01*
X263837Y320587D01*
X264017Y320352D01*
X264212Y320074D01*
X264392Y319755D01*
X264544Y319395D01*
Y319381D01*
X264558Y319353D01*
X264586Y319298D01*
X264600Y319214D01*
X264641Y319117D01*
X264669Y319006D01*
X264697Y318882D01*
X264739Y318729D01*
X264780Y318577D01*
X264808Y318396D01*
X264877Y318008D01*
X264919Y317578D01*
X264933Y317106D01*
Y317093D01*
Y317065D01*
Y316996D01*
Y316926D01*
X264919Y316829D01*
Y316718D01*
X264905Y316455D01*
X264863Y316150D01*
X264822Y315831D01*
X264753Y315498D01*
X264669Y315165D01*
Y315151D01*
X264655Y315123D01*
X264641Y315082D01*
X264628Y315026D01*
X264572Y314874D01*
X264489Y314680D01*
X264406Y314458D01*
X264295Y314236D01*
X264156Y314000D01*
X264017Y313778D01*
X264004Y313750D01*
X263948Y313681D01*
X263865Y313584D01*
X263754Y313459D01*
X263629Y313320D01*
X263477Y313182D01*
X263324Y313029D01*
X263144Y312904D01*
X263116Y312890D01*
X263060Y312849D01*
X262963Y312793D01*
X262825Y312724D01*
X262658Y312641D01*
X262464Y312572D01*
X262242Y312488D01*
X261993Y312419D01*
X261965D01*
X261923Y312405D01*
X261882Y312391D01*
X261743Y312377D01*
X261549Y312350D01*
X261327Y312322D01*
X261063Y312294D01*
X260772Y312280D01*
X260453Y312266D01*
X257000D01*
Y321863D01*
X260689D01*
X260939Y321850D01*
D02*
G37*
%LPC*%
G36*
X260495Y320726D02*
X258276D01*
Y313404D01*
X260550D01*
X260647Y313417D01*
X260855Y313431D01*
X261091Y313445D01*
X261341Y313473D01*
X261590Y313515D01*
X261798Y313570D01*
X261826Y313584D01*
X261896Y313598D01*
X261993Y313639D01*
X262118Y313695D01*
X262256Y313778D01*
X262395Y313861D01*
X262533Y313958D01*
X262672Y314069D01*
X262686Y314097D01*
X262742Y314153D01*
X262825Y314250D01*
X262922Y314388D01*
X263033Y314569D01*
X263158Y314777D01*
X263269Y315012D01*
X263366Y315276D01*
Y315290D01*
X263379Y315317D01*
X263393Y315359D01*
X263407Y315415D01*
X263421Y315484D01*
X263449Y315581D01*
X263477Y315678D01*
X263504Y315789D01*
X263546Y316066D01*
X263587Y316385D01*
X263615Y316746D01*
X263629Y317134D01*
Y317148D01*
Y317204D01*
Y317273D01*
X263615Y317384D01*
Y317509D01*
X263601Y317647D01*
X263587Y317814D01*
X263574Y317980D01*
X263504Y318355D01*
X263421Y318743D01*
X263296Y319104D01*
X263213Y319284D01*
X263130Y319436D01*
Y319450D01*
X263102Y319478D01*
X263074Y319520D01*
X263047Y319575D01*
X262936Y319714D01*
X262797Y319880D01*
X262617Y320060D01*
X262409Y320241D01*
X262173Y320393D01*
X261923Y320518D01*
X261896Y320532D01*
X261826Y320546D01*
X261701Y320587D01*
X261521Y320629D01*
X261299Y320657D01*
X261022Y320698D01*
X260855Y320712D01*
X260675D01*
X260495Y320726D01*
D02*
G37*
%LPD*%
D10*
X256500Y299300D02*
X284500D01*
X256500Y203300D02*
X284500D01*
X256500D02*
Y299300D01*
X284500Y203300D02*
Y299300D01*
X228500Y309300D02*
X313500D01*
X228500Y190300D02*
X313500D01*
X228500D02*
Y309300D01*
X313500Y190300D02*
Y309300D01*
X458014Y788500D02*
G03*
X458014Y788500I-9014J0D01*
G01*
X274614Y788800D02*
G03*
X274614Y788800I-9014J0D01*
G01*
D12*
X218250Y100000D02*
G03*
X218250Y100000I-1250J0D01*
G01*
X94250Y616500D02*
G03*
X94250Y616500I-1250J0D01*
G01*
X96750Y736500D02*
G03*
X96750Y736500I-1250J0D01*
G01*
X230200Y857000D02*
G03*
X230200Y857000I-1250J0D01*
G01*
X590700Y851500D02*
G03*
X590700Y851500I-1250J0D01*
G01*
D13*
X358500Y620000D02*
G03*
X358500Y620000I-1000J0D01*
G01*
X280000Y573500D02*
G03*
X280000Y573500I-1000J0D01*
G01*
D15*
X289000Y88250D02*
Y107250D01*
X297000Y88250D02*
Y107250D01*
X289000D02*
X297000D01*
X289000Y88250D02*
X297000D01*
X306063Y82250D02*
X309000D01*
X277000D02*
X281187D01*
X306063D01*
X309000D02*
Y113250D01*
X277000Y82250D02*
Y113250D01*
X309000D01*
X329000Y487000D02*
X337001D01*
X329000Y471000D02*
X337001D01*
Y487000D01*
X329000Y471000D02*
Y487000D01*
X40430Y391480D02*
X100430D01*
X40430Y327480D02*
Y391480D01*
Y327480D02*
X100430D01*
Y391480D01*
X299500Y500D02*
Y7500D01*
X217500Y500D02*
Y7500D01*
X299500D01*
X217500Y500D02*
X299500D01*
X223000Y54500D02*
X294000D01*
Y7500D02*
Y54500D01*
X223000Y7500D02*
Y54500D01*
X100430Y39980D02*
Y103980D01*
X40430Y39980D02*
X100430D01*
X40430D02*
Y103980D01*
X100430D01*
X333000Y157000D02*
X409100D01*
Y132000D02*
Y157000D01*
X333000Y132000D02*
X409100D01*
X333000D02*
Y157000D01*
Y189000D02*
X409100D01*
Y164000D02*
Y189000D01*
X333000Y164000D02*
X409100D01*
X333000D02*
Y189000D01*
X100430Y189980D02*
Y253980D01*
X40430Y189980D02*
X100430D01*
X40430D02*
Y253980D01*
X100430D01*
X35000Y581400D02*
Y632200D01*
X60000D01*
Y581400D02*
Y632200D01*
X35000Y581400D02*
X60000D01*
X100430Y464980D02*
Y528980D01*
X40430Y464980D02*
X100430D01*
X40430D02*
Y528980D01*
X100430D01*
X544430Y371980D02*
X604430D01*
X544430Y307980D02*
Y371980D01*
Y307980D02*
X604430D01*
Y371980D01*
X693000Y298100D02*
X718000D01*
X693000Y196300D02*
Y298100D01*
Y196300D02*
X718000D01*
Y298100D01*
X693000Y404000D02*
X718000D01*
X693000Y302200D02*
Y404000D01*
Y302200D02*
X718000D01*
Y404000D01*
X693000Y535100D02*
X718000D01*
X693000Y408100D02*
Y535100D01*
Y408100D02*
X718000D01*
Y535100D01*
X441500Y786000D02*
X457539Y785962D01*
X441500Y791000D02*
X457539Y791038D01*
X435500Y756000D02*
Y801000D01*
X502500Y756000D02*
Y801000D01*
X435500Y756000D02*
X502500D01*
X435500Y801000D02*
X502500D01*
X258100Y786300D02*
X274139Y786262D01*
X258100Y791300D02*
X274139Y791338D01*
X252100Y756300D02*
Y801300D01*
X319100Y756300D02*
Y801300D01*
X252100Y756300D02*
X319100D01*
X252100Y801300D02*
X319100D01*
X28100Y1001900D02*
X336100D01*
Y906900D02*
Y1001900D01*
X28100Y906900D02*
Y1001900D01*
Y906900D02*
X336100D01*
X416000Y1000200D02*
X724000D01*
Y905200D02*
Y1000200D01*
X416000Y905200D02*
Y1000200D01*
Y905200D02*
X724000D01*
X693000Y669100D02*
X718000D01*
X693000Y542100D02*
Y669100D01*
Y542100D02*
X718000D01*
Y669100D01*
X656000Y727000D02*
Y803100D01*
X681000D01*
Y727000D02*
Y803100D01*
X656000Y727000D02*
X681000D01*
X695000D02*
Y803100D01*
X720000D01*
Y727000D02*
Y803100D01*
X695000Y727000D02*
X720000D01*
X35000Y701400D02*
Y752200D01*
X60000D01*
Y701400D02*
Y752200D01*
X35000Y701400D02*
X60000D01*
X217000Y74000D02*
X233000D01*
X217000Y82001D02*
X233000D01*
Y74000D02*
Y82001D01*
X217000Y74000D02*
Y82001D01*
X135500Y68499D02*
Y76500D01*
X119500Y68499D02*
Y76500D01*
Y68499D02*
X135500D01*
X119500Y76500D02*
X135500D01*
X212002Y94997D02*
Y124998D01*
X242003D01*
Y94997D02*
Y124998D01*
X212002Y94997D02*
X242003D01*
X217000Y137000D02*
Y145001D01*
X233000Y137000D02*
Y145001D01*
X217000D02*
X233000D01*
X217000Y137000D02*
X233000D01*
X390500Y35999D02*
Y44000D01*
X374500Y35999D02*
Y44000D01*
Y35999D02*
X390500D01*
X374500Y44000D02*
X390500D01*
X374500Y53500D02*
X390500D01*
X374500Y61501D02*
X390500D01*
Y53500D02*
Y61501D01*
X374500Y53500D02*
Y61501D01*
X119500Y226500D02*
X135500D01*
X119500Y218499D02*
X135500D01*
X119500D02*
Y226500D01*
X135500Y218499D02*
Y226500D01*
Y355999D02*
Y364000D01*
X119500Y355999D02*
Y364000D01*
Y355999D02*
X135500D01*
X119500Y364000D02*
X135500D01*
X328000Y244000D02*
Y260000D01*
X319999Y244000D02*
Y260000D01*
X328000D01*
X319999Y244000D02*
X328000D01*
X327000Y278500D02*
X343000D01*
X327000Y286501D02*
X343000D01*
Y278500D02*
Y286501D01*
X327000Y278500D02*
Y286501D01*
X327000Y304000D02*
X343000D01*
X327000Y295999D02*
X343000D01*
X327000D02*
Y304000D01*
X343000Y295999D02*
Y304000D01*
X364000Y452000D02*
X380000D01*
X364000Y443999D02*
X380000D01*
X364000D02*
Y452000D01*
X380000Y443999D02*
Y452000D01*
X309000Y487000D02*
X317001D01*
X309000Y471000D02*
X317001D01*
Y487000D01*
X309000Y471000D02*
Y487000D01*
X352502Y465002D02*
Y625001D01*
Y465002D02*
X512501D01*
Y625001D01*
X352502D02*
X512501D01*
X485500Y35999D02*
Y44000D01*
X469500Y35999D02*
Y44000D01*
Y35999D02*
X485500D01*
X469500Y44000D02*
X485500D01*
X435500Y35999D02*
Y44000D01*
X419500Y35999D02*
Y44000D01*
Y35999D02*
X435500D01*
X419500Y44000D02*
X435500D01*
X530500Y35999D02*
Y44000D01*
X514500Y35999D02*
Y44000D01*
Y35999D02*
X530500D01*
X514500Y44000D02*
X530500D01*
X573000Y35999D02*
Y44000D01*
X557000Y35999D02*
Y44000D01*
Y35999D02*
X573000D01*
X557000Y44000D02*
X573000D01*
X419500Y53500D02*
X435500D01*
X419500Y61501D02*
X435500D01*
Y53500D02*
Y61501D01*
X419500Y53500D02*
Y61501D01*
X469500Y53500D02*
X485500D01*
X469500Y61501D02*
X485500D01*
Y53500D02*
Y61501D01*
X469500Y53500D02*
Y61501D01*
X514500Y53500D02*
X530500D01*
X514500Y61501D02*
X530500D01*
Y53500D02*
Y61501D01*
X514500Y53500D02*
Y61501D01*
X615500Y35999D02*
Y44000D01*
X599500Y35999D02*
Y44000D01*
Y35999D02*
X615500D01*
X599500Y44000D02*
X615500D01*
X557000Y53500D02*
X573000D01*
X557000Y61501D02*
X573000D01*
Y53500D02*
Y61501D01*
X557000Y53500D02*
Y61501D01*
X599500Y53500D02*
X615500D01*
X599500Y61501D02*
X615500D01*
Y53500D02*
Y61501D01*
X599500Y53500D02*
Y61501D01*
X511000Y336500D02*
X527000D01*
X511000Y344501D02*
X527000D01*
Y336500D02*
Y344501D01*
X511000Y336500D02*
Y344501D01*
X582000Y393999D02*
Y402000D01*
X566000Y393999D02*
Y402000D01*
Y393999D02*
X582000D01*
X566000Y402000D02*
X582000D01*
X439000Y441999D02*
Y450000D01*
X423000Y441999D02*
Y450000D01*
Y441999D02*
X439000D01*
X423000Y450000D02*
X439000D01*
X505000Y452000D02*
X521000D01*
X505000Y460001D02*
X521000D01*
Y452000D02*
Y460001D01*
X505000Y452000D02*
Y460001D01*
X276000Y494000D02*
X284001D01*
X276000Y478000D02*
X284001D01*
Y494000D01*
X276000Y478000D02*
Y494000D01*
X135500Y493499D02*
Y501500D01*
X119500Y493499D02*
Y501500D01*
Y493499D02*
X135500D01*
X119500Y501500D02*
X135500D01*
X257000Y535000D02*
Y543001D01*
X273000Y535000D02*
Y543001D01*
X257000D02*
X273000D01*
X257000Y535000D02*
X273000D01*
X285500Y553500D02*
Y578500D01*
X252500Y553500D02*
Y578500D01*
X285500D01*
X252500Y553500D02*
X285500D01*
X85000Y575000D02*
Y583001D01*
X101000Y575000D02*
Y583001D01*
X85000D02*
X101000D01*
X85000Y575000D02*
X101000D01*
X117500D02*
Y583001D01*
X133500Y575000D02*
Y583001D01*
X117500D02*
X133500D01*
X117500Y575000D02*
X133500D01*
X77000Y596000D02*
Y612000D01*
X68999Y596000D02*
Y612000D01*
X77000D01*
X68999Y596000D02*
X77000D01*
X87997Y621498D02*
X117998D01*
Y591497D02*
Y621498D01*
X87997Y591497D02*
X117998D01*
X87997D02*
Y621498D01*
X90000Y638000D02*
X106000D01*
X90000Y629999D02*
X106000D01*
X90000D02*
Y638000D01*
X106000Y629999D02*
Y638000D01*
X90000Y647500D02*
Y655501D01*
X106000Y647500D02*
Y655501D01*
X90000D02*
X106000D01*
X90000Y647500D02*
X106000D01*
X126499Y596000D02*
X134500D01*
X126499Y612000D02*
X134500D01*
X126499Y596000D02*
Y612000D01*
X134500Y596000D02*
Y612000D01*
X257999Y611000D02*
X290000D01*
X257999Y596000D02*
Y611000D01*
Y596000D02*
X290000D01*
Y611000D01*
X311000Y502000D02*
Y518000D01*
X319001Y502000D02*
Y518000D01*
X311000Y502000D02*
X319001D01*
X311000Y518000D02*
X319001D01*
X291000Y494000D02*
X299001D01*
X291000Y478000D02*
X299001D01*
Y494000D01*
X291000Y478000D02*
Y494000D01*
X328000Y502000D02*
Y518000D01*
X336001Y502000D02*
Y518000D01*
X328000Y502000D02*
X336001D01*
X328000Y518000D02*
X336001D01*
X301999Y551000D02*
X310000D01*
X301999Y567000D02*
X310000D01*
X301999Y551000D02*
Y567000D01*
X310000Y551000D02*
Y567000D01*
X329000Y551000D02*
Y567000D01*
X320999Y551000D02*
Y567000D01*
X329000D01*
X320999Y551000D02*
X329000D01*
X266000Y623499D02*
Y631500D01*
X250000Y623499D02*
Y631500D01*
Y623499D02*
X266000D01*
X250000Y631500D02*
X266000D01*
X298000Y623499D02*
Y631500D01*
X282000Y623499D02*
Y631500D01*
Y623499D02*
X298000D01*
X282000Y631500D02*
X298000D01*
X338000Y593000D02*
Y609000D01*
X329999Y593000D02*
Y609000D01*
X338000D01*
X329999Y593000D02*
X338000D01*
X367000Y641000D02*
X383000D01*
X367000Y649001D02*
X383000D01*
Y641000D02*
Y649001D01*
X367000Y641000D02*
Y649001D01*
X398500Y642000D02*
Y658000D01*
X406501Y642000D02*
Y658000D01*
X398500Y642000D02*
X406501D01*
X398500Y658000D02*
X406501D01*
X528500Y597000D02*
Y613000D01*
X536501Y597000D02*
Y613000D01*
X528500Y597000D02*
X536501D01*
X528500Y613000D02*
X536501D01*
X87500Y695000D02*
Y703001D01*
X103500Y695000D02*
Y703001D01*
X87500D02*
X103500D01*
X87500Y695000D02*
X103500D01*
X125000D02*
Y703001D01*
X141000Y695000D02*
Y703001D01*
X125000D02*
X141000D01*
X125000Y695000D02*
X141000D01*
X79500Y716000D02*
Y732000D01*
X71499Y716000D02*
Y732000D01*
X79500D01*
X71499Y716000D02*
X79500D01*
X90497Y741498D02*
X120498D01*
Y711497D02*
Y741498D01*
X90497Y711497D02*
X120498D01*
X90497D02*
Y741498D01*
X92500Y760500D02*
X108500D01*
X92500Y752499D02*
X108500D01*
X92500D02*
Y760500D01*
X108500Y752499D02*
Y760500D01*
X92500Y770000D02*
Y778001D01*
X108500Y770000D02*
Y778001D01*
X92500D02*
X108500D01*
X92500Y770000D02*
X108500D01*
X150999Y867000D02*
X159000D01*
X150999Y883000D02*
X159000D01*
X150999Y867000D02*
Y883000D01*
X159000Y867000D02*
Y883000D01*
X131499Y716000D02*
X139500D01*
X131499Y732000D02*
X139500D01*
X131499Y716000D02*
Y732000D01*
X139500Y716000D02*
Y732000D01*
X234998Y850500D02*
Y899500D01*
X174998D02*
X234998D01*
X174998Y850500D02*
Y899500D01*
Y850500D02*
X234998D01*
X500500Y845500D02*
X516500D01*
X500500Y853501D02*
X516500D01*
Y845500D02*
Y853501D01*
X500500Y845500D02*
Y853501D01*
X259000Y867000D02*
Y883000D01*
X250999Y867000D02*
Y883000D01*
X259000D01*
X250999Y867000D02*
X259000D01*
X519500Y865500D02*
Y881500D01*
X511499Y865500D02*
Y881500D01*
X519500D01*
X511499Y865500D02*
X519500D01*
X535498Y845000D02*
X595498D01*
X535498D02*
Y894000D01*
X595498D01*
Y845000D02*
Y894000D01*
X611297Y862303D02*
X619298D01*
X611297Y878303D02*
X619298D01*
X611297Y862303D02*
Y878303D01*
X619298Y862303D02*
Y878303D01*
X35000Y315000D02*
Y405000D01*
X105000D01*
X35000Y315000D02*
X105000D01*
Y405000D01*
X70000Y355000D02*
Y365000D01*
X65000Y360000D02*
X75000D01*
X258500Y30750D02*
Y40750D01*
X253500Y35750D02*
X263500D01*
X65000Y72500D02*
X75000D01*
X70000Y67500D02*
Y77500D01*
X105000Y27500D02*
Y117500D01*
X35000Y27500D02*
X105000D01*
X35000Y117500D02*
X105000D01*
X35000Y27500D02*
Y117500D01*
X411000Y129000D02*
Y159000D01*
X331000Y129000D02*
Y159000D01*
Y129000D02*
X411000D01*
X331000Y159000D02*
X411000D01*
X366000Y144000D02*
X376000D01*
X371000Y139000D02*
Y149000D01*
X411000Y161000D02*
Y191000D01*
X331000Y161000D02*
Y191000D01*
Y161000D02*
X411000D01*
X331000Y191000D02*
X411000D01*
X366000Y176000D02*
X376000D01*
X371000Y171000D02*
Y181000D01*
X65000Y222500D02*
X75000D01*
X70000Y217500D02*
Y227500D01*
X105000Y177500D02*
Y267500D01*
X35000Y177500D02*
X105000D01*
X35000Y267500D02*
X105000D01*
X35000Y177500D02*
Y267500D01*
X33000Y633800D02*
X63000D01*
X33000Y578800D02*
X63000D01*
Y633800D01*
X33000Y578800D02*
Y633800D01*
X48000Y601500D02*
Y611500D01*
X43000Y606500D02*
X53000D01*
X65000Y497500D02*
X75000D01*
X70000Y492500D02*
Y502500D01*
X105000Y452500D02*
Y542500D01*
X35000Y452500D02*
X105000D01*
X35000Y542500D02*
X105000D01*
X35000Y452500D02*
Y542500D01*
X539000Y295500D02*
Y385500D01*
X609000D01*
X539000Y295500D02*
X609000D01*
Y385500D01*
X574000Y335500D02*
Y345500D01*
X569000Y340500D02*
X579000D01*
X701000Y247100D02*
X711000D01*
X706000Y242100D02*
Y252100D01*
X691000Y194100D02*
X721000D01*
X691000Y299100D02*
X721000D01*
X691000Y194100D02*
Y299100D01*
X721000Y194100D02*
Y299100D01*
X701000Y353000D02*
X711000D01*
X706000Y348000D02*
Y358000D01*
X691000Y300000D02*
X721000D01*
X691000Y405000D02*
X721000D01*
X691000Y300000D02*
Y405000D01*
X721000Y300000D02*
Y405000D01*
X701000Y472000D02*
X711000D01*
X706000Y467000D02*
Y477000D01*
X691000Y407100D02*
X721000D01*
X691000Y538100D02*
X721000D01*
X691000Y407100D02*
Y538100D01*
X721000Y407100D02*
Y538100D01*
X435500Y801000D02*
X502500D01*
Y756000D02*
Y801000D01*
X435500Y756000D02*
X502500D01*
X435500D02*
Y801000D01*
X252100Y801300D02*
X319100D01*
Y756300D02*
Y801300D01*
X252100Y756300D02*
X319100D01*
X252100D02*
Y801300D01*
X177100Y922500D02*
X187100D01*
X182100Y917500D02*
Y927500D01*
X26100Y1092500D02*
X338100D01*
X26100Y905500D02*
Y1092500D01*
Y905500D02*
X338100D01*
Y1092500D01*
X565000Y920800D02*
X575000D01*
X570000Y915800D02*
Y925800D01*
X414000Y1090800D02*
X726000D01*
X414000Y903800D02*
Y1090800D01*
Y903800D02*
X726000D01*
Y1090800D01*
X701000Y606000D02*
X711000D01*
X706000Y601000D02*
Y611000D01*
X691000Y541100D02*
X721000D01*
X691000Y672100D02*
X721000D01*
X691000Y541100D02*
Y672100D01*
X721000Y541100D02*
Y672100D01*
X654000Y805000D02*
X684000D01*
X654000Y725000D02*
X684000D01*
Y805000D01*
X654000Y725000D02*
Y805000D01*
X669000Y760000D02*
Y770000D01*
X664000Y765000D02*
X674000D01*
X693000Y805000D02*
X723000D01*
X693000Y725000D02*
X723000D01*
Y805000D01*
X693000Y725000D02*
Y805000D01*
X708000Y760000D02*
Y770000D01*
X703000Y765000D02*
X713000D01*
X33000Y753800D02*
X63000D01*
X33000Y698800D02*
X63000D01*
Y753800D01*
X33000Y698800D02*
Y753800D01*
X48000Y721500D02*
Y731500D01*
X43000Y726500D02*
X53000D01*
X222000Y110000D02*
X232000D01*
X227000Y105000D02*
Y115000D01*
X243000Y91500D02*
Y128500D01*
X211000Y91500D02*
Y128500D01*
X243000D01*
X211000Y91500D02*
X243000D01*
X248000Y548500D02*
Y583500D01*
Y548500D02*
X290000D01*
Y583500D01*
X248000D02*
X290000D01*
X264000Y566000D02*
X274000D01*
X269000Y561000D02*
Y571000D01*
X103000Y601500D02*
Y611500D01*
X98000Y606500D02*
X108000D01*
X84500Y590500D02*
X121500D01*
X84500Y622500D02*
X121500D01*
Y590500D02*
Y622500D01*
X84500Y590500D02*
Y622500D01*
X297500Y590000D02*
Y617000D01*
X250500Y590000D02*
X297500D01*
X250500D02*
Y617000D01*
X297500D01*
X269000Y603500D02*
X279000D01*
X274000Y598500D02*
Y608500D01*
X105500Y721500D02*
Y731500D01*
X100500Y726500D02*
X110500D01*
X87000Y710500D02*
X124000D01*
X87000Y742500D02*
X124000D01*
Y710500D02*
Y742500D01*
X87000Y710500D02*
Y742500D01*
D16*
X402099Y147699D02*
G03*
X402099Y147699I-2000J0D01*
G01*
Y179699D02*
G03*
X402099Y179699I-2000J0D01*
G01*
X46302Y622898D02*
G03*
X46302Y622898I-2000J0D01*
G01*
X711000Y205300D02*
G03*
X711000Y205300I-2000J0D01*
G01*
Y311200D02*
G03*
X711000Y311200I-2000J0D01*
G01*
Y417100D02*
G03*
X711000Y417100I-2000J0D01*
G01*
X39100Y915900D02*
G03*
X39100Y915900I-2000J0D01*
G01*
X427000Y914200D02*
G03*
X427000Y914200I-2000J0D01*
G01*
X711000Y551100D02*
G03*
X711000Y551100I-2000J0D01*
G01*
X667301Y794100D02*
G03*
X667301Y794100I-2000J0D01*
G01*
X706301D02*
G03*
X706301Y794100I-2000J0D01*
G01*
X46302Y742898D02*
G03*
X46302Y742898I-2000J0D01*
G01*
D17*
X325500Y464500D02*
Y493500D01*
X340500Y464500D02*
Y493500D01*
X325500Y464500D02*
X340500D01*
X325500Y493500D02*
X340500D01*
X210500Y70500D02*
Y85500D01*
X239500Y70500D02*
Y85500D01*
X210500D02*
X239500D01*
X210500Y70500D02*
X239500D01*
X113000Y80000D02*
X142000D01*
X113000Y65000D02*
X142000D01*
X113000D02*
Y80000D01*
X142000Y65000D02*
Y80000D01*
X210500Y133500D02*
X239500D01*
X210500Y148500D02*
X239500D01*
Y133500D02*
Y148500D01*
X210500Y133500D02*
Y148500D01*
X368000Y47500D02*
X397000D01*
X368000Y32500D02*
X397000D01*
X368000D02*
Y47500D01*
X397000Y32500D02*
Y47500D01*
X368000Y50000D02*
Y65000D01*
X397000Y50000D02*
Y65000D01*
X368000D02*
X397000D01*
X368000Y50000D02*
X397000D01*
X142000Y215000D02*
Y230000D01*
X113000Y215000D02*
Y230000D01*
Y215000D02*
X142000D01*
X113000Y230000D02*
X142000D01*
X113000Y367500D02*
X142000D01*
X113000Y352500D02*
X142000D01*
X113000D02*
Y367500D01*
X142000Y352500D02*
Y367500D01*
X316500Y237500D02*
X331500D01*
X316500Y266500D02*
X331500D01*
X316500Y237500D02*
Y266500D01*
X331500Y237500D02*
Y266500D01*
X320500Y275000D02*
Y290000D01*
X349500Y275000D02*
Y290000D01*
X320500D02*
X349500D01*
X320500Y275000D02*
X349500D01*
Y292500D02*
Y307500D01*
X320500Y292500D02*
Y307500D01*
Y292500D02*
X349500D01*
X320500Y307500D02*
X349500D01*
X386500Y440500D02*
Y455500D01*
X357500Y440500D02*
Y455500D01*
Y440500D02*
X386500D01*
X357500Y455500D02*
X386500D01*
X305500Y464500D02*
Y493500D01*
X320500Y464500D02*
Y493500D01*
X305500Y464500D02*
X320500D01*
X305500Y493500D02*
X320500D01*
X346000Y609000D02*
X357500D01*
Y620000D01*
X368500D01*
Y631500D01*
X507500Y609000D02*
X519000D01*
X507500D02*
Y620000D01*
X496500D02*
X507500D01*
X496500D02*
Y631500D01*
Y458500D02*
Y470000D01*
X507500D01*
Y481000D01*
X519000D01*
X346000D02*
X357500D01*
Y470000D02*
Y481000D01*
Y470000D02*
X368500D01*
Y458500D02*
Y470000D01*
X346000Y481000D02*
Y609000D01*
X368500Y458500D02*
X496500D01*
X519000Y481000D02*
Y609000D01*
X368500Y631500D02*
X496500D01*
X463000Y47500D02*
X492000D01*
X463000Y32500D02*
X492000D01*
X463000D02*
Y47500D01*
X492000Y32500D02*
Y47500D01*
X413000D02*
X442000D01*
X413000Y32500D02*
X442000D01*
X413000D02*
Y47500D01*
X442000Y32500D02*
Y47500D01*
X508000D02*
X537000D01*
X508000Y32500D02*
X537000D01*
X508000D02*
Y47500D01*
X537000Y32500D02*
Y47500D01*
X550500D02*
X579500D01*
X550500Y32500D02*
X579500D01*
X550500D02*
Y47500D01*
X579500Y32500D02*
Y47500D01*
X413000Y50000D02*
Y65000D01*
X442000Y50000D02*
Y65000D01*
X413000D02*
X442000D01*
X413000Y50000D02*
X442000D01*
X463000D02*
Y65000D01*
X492000Y50000D02*
Y65000D01*
X463000D02*
X492000D01*
X463000Y50000D02*
X492000D01*
X508000D02*
Y65000D01*
X537000Y50000D02*
Y65000D01*
X508000D02*
X537000D01*
X508000Y50000D02*
X537000D01*
X593000Y47500D02*
X622000D01*
X593000Y32500D02*
X622000D01*
X593000D02*
Y47500D01*
X622000Y32500D02*
Y47500D01*
X550500Y50000D02*
Y65000D01*
X579500Y50000D02*
Y65000D01*
X550500D02*
X579500D01*
X550500Y50000D02*
X579500D01*
X593000D02*
Y65000D01*
X622000Y50000D02*
Y65000D01*
X593000D02*
X622000D01*
X593000Y50000D02*
X622000D01*
X504500Y333000D02*
Y348000D01*
X533500Y333000D02*
Y348000D01*
X504500D02*
X533500D01*
X504500Y333000D02*
X533500D01*
X559500Y405500D02*
X588500D01*
X559500Y390500D02*
X588500D01*
X559500D02*
Y405500D01*
X588500Y390500D02*
Y405500D01*
X416500Y453500D02*
X445500D01*
X416500Y438500D02*
X445500D01*
X416500D02*
Y453500D01*
X445500Y438500D02*
Y453500D01*
X498500Y448500D02*
Y463500D01*
X527500Y448500D02*
Y463500D01*
X498500D02*
X527500D01*
X498500Y448500D02*
X527500D01*
X272500Y471500D02*
Y500500D01*
X287500Y471500D02*
Y500500D01*
X272500Y471500D02*
X287500D01*
X272500Y500500D02*
X287500D01*
X113000Y505000D02*
X142000D01*
X113000Y490000D02*
X142000D01*
X113000D02*
Y505000D01*
X142000Y490000D02*
Y505000D01*
X250500Y531500D02*
X279500D01*
X250500Y546500D02*
X279500D01*
Y531500D02*
Y546500D01*
X250500Y531500D02*
Y546500D01*
X78500Y571500D02*
X107500D01*
X78500Y586500D02*
X107500D01*
Y571500D02*
Y586500D01*
X78500Y571500D02*
Y586500D01*
X111000Y571500D02*
X140000D01*
X111000Y586500D02*
X140000D01*
Y571500D02*
Y586500D01*
X111000Y571500D02*
Y586500D01*
X65500Y589500D02*
X80500D01*
X65500Y618500D02*
X80500D01*
X65500Y589500D02*
Y618500D01*
X80500Y589500D02*
Y618500D01*
X112500Y626500D02*
Y641500D01*
X83500Y626500D02*
Y641500D01*
Y626500D02*
X112500D01*
X83500Y641500D02*
X112500D01*
X83500Y644000D02*
X112500D01*
X83500Y659000D02*
X112500D01*
Y644000D02*
Y659000D01*
X83500Y644000D02*
Y659000D01*
X138000Y589500D02*
Y618500D01*
X123000Y589500D02*
Y618500D01*
X138000D01*
X123000Y589500D02*
X138000D01*
X307500Y524500D02*
X322500D01*
X307500Y495500D02*
X322500D01*
Y524500D01*
X307500Y495500D02*
Y524500D01*
X287500Y471500D02*
Y500500D01*
X302500Y471500D02*
Y500500D01*
X287500Y471500D02*
X302500D01*
X287500Y500500D02*
X302500D01*
X324500Y524500D02*
X339500D01*
X324500Y495500D02*
X339500D01*
Y524500D01*
X324500Y495500D02*
Y524500D01*
X313500Y544500D02*
Y573500D01*
X298500Y544500D02*
Y573500D01*
X313500D01*
X298500Y544500D02*
X313500D01*
X317500D02*
X332500D01*
X317500Y573500D02*
X332500D01*
X317500Y544500D02*
Y573500D01*
X332500Y544500D02*
Y573500D01*
X243500Y635000D02*
X272500D01*
X243500Y620000D02*
X272500D01*
X243500D02*
Y635000D01*
X272500Y620000D02*
Y635000D01*
X275500D02*
X304500D01*
X275500Y620000D02*
X304500D01*
X275500D02*
Y635000D01*
X304500Y620000D02*
Y635000D01*
X326500Y586500D02*
X341500D01*
X326500Y615500D02*
X341500D01*
X326500Y586500D02*
Y615500D01*
X341500Y586500D02*
Y615500D01*
X360500Y637500D02*
Y652500D01*
X389500Y637500D02*
Y652500D01*
X360500D02*
X389500D01*
X360500Y637500D02*
X389500D01*
X395000Y664500D02*
X410000D01*
X395000Y635500D02*
X410000D01*
Y664500D01*
X395000Y635500D02*
Y664500D01*
X525000Y619500D02*
X540000D01*
X525000Y590500D02*
X540000D01*
Y619500D01*
X525000Y590500D02*
Y619500D01*
X81000Y691500D02*
X110000D01*
X81000Y706500D02*
X110000D01*
Y691500D02*
Y706500D01*
X81000Y691500D02*
Y706500D01*
X118500Y691500D02*
X147500D01*
X118500Y706500D02*
X147500D01*
Y691500D02*
Y706500D01*
X118500Y691500D02*
Y706500D01*
X68000Y709500D02*
X83000D01*
X68000Y738500D02*
X83000D01*
X68000Y709500D02*
Y738500D01*
X83000Y709500D02*
Y738500D01*
X115000Y749000D02*
Y764000D01*
X86000Y749000D02*
Y764000D01*
Y749000D02*
X115000D01*
X86000Y764000D02*
X115000D01*
X86000Y766500D02*
X115000D01*
X86000Y781500D02*
X115000D01*
Y766500D02*
Y781500D01*
X86000Y766500D02*
Y781500D01*
X162500Y860500D02*
Y889500D01*
X147500Y860500D02*
Y889500D01*
X162500D01*
X147500Y860500D02*
X162500D01*
X143000Y709500D02*
Y738500D01*
X128000Y709500D02*
Y738500D01*
X143000D01*
X128000Y709500D02*
X143000D01*
X245000Y847500D02*
Y902500D01*
X165000D02*
X245000D01*
X165000Y847500D02*
Y902500D01*
Y847500D02*
X245000D01*
X494000Y842000D02*
Y857000D01*
X523000Y842000D02*
Y857000D01*
X494000D02*
X523000D01*
X494000Y842000D02*
X523000D01*
X247500Y860500D02*
X262500D01*
X247500Y889500D02*
X262500D01*
X247500Y860500D02*
Y889500D01*
X262500Y860500D02*
Y889500D01*
X508000Y859000D02*
X523000D01*
X508000Y888000D02*
X523000D01*
X508000Y859000D02*
Y888000D01*
X523000Y859000D02*
Y888000D01*
X525500Y842000D02*
X605500D01*
X525500D02*
Y897000D01*
X605500D01*
Y842000D02*
Y897000D01*
X622798Y855803D02*
Y884803D01*
X607798Y855803D02*
Y884803D01*
X622798D01*
X607798Y855803D02*
X622798D01*
M02*
